<?xml version="1.0" encoding="UTF-8"?>
<svg version="1.1" xmlns="http://www.w3.org/2000/svg" width="32" height="32">
<path d="M0 0 C1.66663347 3.33326695 1.67075525 7.08210838 2.0625 10.75 C2.15337891 11.54921875 2.24425781 12.3484375 2.33789062 13.171875 C2.80813098 17.47121539 3.10482427 21.66726353 3 26 C-5.85696952 29.50936528 -14.37436673 32.54484717 -24 32 C-24.65365399 30.46163292 -25.29753603 28.91911234 -25.9375 27.375 C-26.29714844 26.51648438 -26.65679688 25.65796875 -27.02734375 24.7734375 C-28.97944092 19.20721666 -28.97944092 19.20721666 -29 16 C-27.17158505 13.54755265 -25.63384361 11.85330065 -23.375 9.875 C-22.49932373 9.08561035 -22.49932373 9.08561035 -21.60595703 8.28027344 C-15.37445607 2.97424292 -8.31090385 0 0 0 Z " fill="#35C1C1" transform="translate(29,0)"/>
<path d="M0 0 C0 0.99 0 1.98 0 3 C-2.40625 5.04296875 -2.40625 5.04296875 -5.5 7.1875 C-6.5209375 7.90292969 -7.541875 8.61835938 -8.59375 9.35546875 C-9.3878125 9.89816406 -10.181875 10.44085938 -11 11 C-9.02 10.34 -7.04 9.68 -5 9 C-6.5280389 14.09882455 -8.71036856 18.65665659 -11.125 23.375 C-11.49753906 24.11105469 -11.87007812 24.84710937 -12.25390625 25.60546875 C-13.1656122 27.40550358 -14.08229932 29.20301402 -15 31 C-16.65 31 -18.3 31 -20 31 C-20.33 30.01 -20.66 29.02 -21 28 C-21.66 28 -22.32 28 -23 28 C-23.53394179 26.5882217 -24.05165104 25.17029756 -24.5625 23.75 C-24.85253906 22.96109375 -25.14257812 22.1721875 -25.44140625 21.359375 C-26.09101818 18.61555957 -26.15311252 17.57119557 -25 15 C-23.29895851 13.0056755 -21.66087155 11.26944784 -19.75 9.5 C-18.96157715 8.76753052 -18.96157715 8.76753052 -18.15722656 8.02026367 C-12.692805 3.2521775 -7.10825271 1.43311547 0 0 Z " fill="#324949" transform="translate(26,0)"/>
<path d="M0 0 C0.66 0 1.32 0 2 0 C2.13277344 1.14339844 2.26554687 2.28679688 2.40234375 3.46484375 C2.5805031 4.9557562 2.75890082 6.44664018 2.9375 7.9375 C3.06801758 9.06961914 3.06801758 9.06961914 3.20117188 10.22460938 C3.34324099 13.92187458 3.34324099 13.92187458 5 17 C5.04080783 18.99958364 5.04254356 21.00045254 5 23 C3 24 3 24 -7 23 C-4.69 15.41 -2.38 7.82 0 0 Z " fill="#0C1312" transform="translate(27,3)"/>
<path d="M0 0 C-1.49359485 4.84286815 -3.45033567 9.31350896 -5.625 13.875 C-5.94984375 14.56335937 -6.2746875 15.25171875 -6.609375 15.9609375 C-7.40323472 17.64205219 -8.20119558 19.32122921 -9 21 C-9.66 20.67 -10.32 20.34 -11 20 C-13.58849558 11.37168142 -13.58849558 11.37168142 -13 7 C-11.1015625 5.234375 -11.1015625 5.234375 -8.625 3.75 C-7.81289062 3.24984375 -7.00078125 2.7496875 -6.1640625 2.234375 C-2.24683544 0 -2.24683544 0 0 0 Z " fill="#090B0B" transform="translate(21,9)"/>
<path d="M0 0 C2.64 0 5.28 0 8 0 C8.99 4.95 9.98 9.9 11 15 C9.35 15 7.7 15 6 15 C5.67 14.01 5.34 13.02 5 12 C4.34 12 3.68 12 3 12 C2.49440092 10.56445975 1.9957251 9.1264798 1.5 7.6875 C1.2215625 6.88699219 0.943125 6.08648437 0.65625 5.26171875 C0 3 0 3 0 0 Z " fill="#202C2C" transform="translate(0,16)"/>
<path d="M0 0 C0 0.99 0 1.98 0 3 C-1.98 3.99 -1.98 3.99 -4 5 C-4 4.34 -4 3.68 -4 3 C-5.65 3.33 -7.3 3.66 -9 4 C-6.3144406 1.3144406 -3.62378672 0.93950026 0 0 Z " fill="#316767" transform="translate(26,0)"/>
</svg>
